<svg xmlns="http://www.w3.org/2000/svg" width="38.704" height="38.704" viewBox="0 0 38.704 38.704">
  <path id="Icon_awesome-facebook-square" data-name="Icon awesome-facebook-square" d="M34.557,2.25H4.147A4.147,4.147,0,0,0,0,6.4v30.41a4.147,4.147,0,0,0,4.147,4.147H16V27.8H10.561V21.6H16v-4.72c0-5.369,3.2-8.335,8.092-8.335a32.973,32.973,0,0,1,4.8.418v5.27h-2.7c-2.662,0-3.492,1.652-3.492,3.346V21.6h5.942l-.95,6.193H22.7V40.954H34.557A4.147,4.147,0,0,0,38.7,36.807V6.4A4.147,4.147,0,0,0,34.557,2.25Z" transform="translate(0 -2.25)" fill="#182740"/>
</svg>
