<svg xmlns="http://www.w3.org/2000/svg" width="38.704" height="38.704" viewBox="0 0 38.704 38.704">
  <path id="Icon_awesome-linkedin" data-name="Icon awesome-linkedin" d="M35.939,2.25H2.756A2.776,2.776,0,0,0,0,5.04V38.163a2.776,2.776,0,0,0,2.756,2.79H35.939a2.784,2.784,0,0,0,2.765-2.79V5.04A2.784,2.784,0,0,0,35.939,2.25ZM11.7,35.425H5.961V16.954h5.745V35.425ZM8.829,14.431a3.326,3.326,0,1,1,3.326-3.326A3.328,3.328,0,0,1,8.829,14.431ZM33.2,35.425H27.464V26.44c0-2.143-.043-4.9-2.981-4.9-2.989,0-3.447,2.333-3.447,4.743v9.14H15.3V16.954h5.5v2.523h.078A6.042,6.042,0,0,1,26.315,16.5c5.806,0,6.885,3.827,6.885,8.8Z" transform="translate(0 -2.25)" fill="#182740"/>
</svg>
