<svg xmlns="http://www.w3.org/2000/svg" width="36.054" height="36.054" viewBox="0 0 36.054 36.054">
  <path id="Icon_awesome-phone-alt" data-name="Icon awesome-phone-alt" d="M35.025,25.477,27.139,22.1a1.69,1.69,0,0,0-1.972.486l-3.493,4.267A26.1,26.1,0,0,1,9.2,14.373l4.267-3.493a1.686,1.686,0,0,0,.486-1.972L10.57,1.022A1.7,1.7,0,0,0,8.633.043L1.31,1.733A1.69,1.69,0,0,0,0,3.38,32.671,32.671,0,0,0,32.674,36.054a1.69,1.69,0,0,0,1.648-1.31l1.69-7.324a1.71,1.71,0,0,0-.987-1.944Z" transform="translate(0 0)" fill="#182740"/>
</svg>
